<svg xmlns="http://www.w3.org/2000/svg" version="1.1" xmlns:xlink="http://www.w3.org/1999/xlink" xmlns:svgjs="http://svgjs.dev/svgjs" viewBox="0 0 1422 800"><defs><linearGradient x1="50%" y1="0%" x2="50%" y2="100%" id="oooscillate-grad"><stop stop-color="hsl(206, 75%, 49%)" stop-opacity="1" offset="0%"></stop><stop stop-color="hsl(331, 90%, 56%)" stop-opacity="1" offset="100%"></stop></linearGradient></defs><g stroke-width="3" stroke="url(#oooscillate-grad)" fill="none" stroke-linecap="round"><path d="M 0 3901 Q 355.5 -45 711 400 Q 1066.5 845 1422 3901" stroke-dasharray="63 14" opacity="0.60"></path><path d="M 0 3818 Q 355.5 -45 711 400 Q 1066.5 845 1422 3818" stroke-dasharray="90 65" opacity="0.24"></path><path d="M 0 3735 Q 355.5 -45 711 400 Q 1066.5 845 1422 3735" stroke-dasharray="43 9" opacity="0.66"></path><path d="M 0 3652 Q 355.5 -45 711 400 Q 1066.5 845 1422 3652" stroke-dasharray="81 32" opacity="0.48"></path><path d="M 0 3569 Q 355.5 -45 711 400 Q 1066.5 845 1422 3569" stroke-dasharray="22 74" opacity="0.15"></path><path d="M 0 3486 Q 355.5 -45 711 400 Q 1066.5 845 1422 3486" stroke-dasharray="35 19" opacity="0.48"></path><path d="M 0 3403 Q 355.5 -45 711 400 Q 1066.5 845 1422 3403" stroke-dasharray="91 66" opacity="0.49"></path><path d="M 0 3320 Q 355.5 -45 711 400 Q 1066.5 845 1422 3320" stroke-dasharray="13 16" opacity="0.99"></path><path d="M 0 3237 Q 355.5 -45 711 400 Q 1066.5 845 1422 3237" stroke-dasharray="27 88" opacity="0.33"></path><path d="M 0 3154 Q 355.5 -45 711 400 Q 1066.5 845 1422 3154" stroke-dasharray="18 65" opacity="0.20"></path><path d="M 0 3071 Q 355.5 -45 711 400 Q 1066.5 845 1422 3071" stroke-dasharray="51 55" opacity="0.26"></path><path d="M 0 2988 Q 355.5 -45 711 400 Q 1066.5 845 1422 2988" stroke-dasharray="15 1" opacity="0.34"></path><path d="M 0 2905 Q 355.5 -45 711 400 Q 1066.5 845 1422 2905" stroke-dasharray="57 10" opacity="0.16"></path><path d="M 0 2822 Q 355.5 -45 711 400 Q 1066.5 845 1422 2822" stroke-dasharray="15 78" opacity="0.52"></path><path d="M 0 2739 Q 355.5 -45 711 400 Q 1066.5 845 1422 2739" stroke-dasharray="30 5" opacity="0.56"></path><path d="M 0 2656 Q 355.5 -45 711 400 Q 1066.5 845 1422 2656" stroke-dasharray="53 11" opacity="0.73"></path><path d="M 0 2573 Q 355.5 -45 711 400 Q 1066.5 845 1422 2573" stroke-dasharray="37 19" opacity="0.81"></path><path d="M 0 2490 Q 355.5 -45 711 400 Q 1066.5 845 1422 2490" stroke-dasharray="4 87" opacity="0.29"></path><path d="M 0 2407 Q 355.5 -45 711 400 Q 1066.5 845 1422 2407" stroke-dasharray="38 69" opacity="0.45"></path><path d="M 0 2324 Q 355.5 -45 711 400 Q 1066.5 845 1422 2324" stroke-dasharray="5 14" opacity="0.88"></path><path d="M 0 2241 Q 355.5 -45 711 400 Q 1066.5 845 1422 2241" stroke-dasharray="55 20" opacity="0.38"></path><path d="M 0 2158 Q 355.5 -45 711 400 Q 1066.5 845 1422 2158" stroke-dasharray="34 35" opacity="0.17"></path><path d="M 0 2075 Q 355.5 -45 711 400 Q 1066.5 845 1422 2075" stroke-dasharray="82 61" opacity="0.28"></path><path d="M 0 1992 Q 355.5 -45 711 400 Q 1066.5 845 1422 1992" stroke-dasharray="45 46" opacity="0.32"></path><path d="M 0 1909 Q 355.5 -45 711 400 Q 1066.5 845 1422 1909" stroke-dasharray="61 64" opacity="0.09"></path><path d="M 0 1826 Q 355.5 -45 711 400 Q 1066.5 845 1422 1826" stroke-dasharray="90 28" opacity="0.86"></path><path d="M 0 1743 Q 355.5 -45 711 400 Q 1066.5 845 1422 1743" stroke-dasharray="63 50" opacity="0.81"></path><path d="M 0 1660 Q 355.5 -45 711 400 Q 1066.5 845 1422 1660" stroke-dasharray="72 28" opacity="0.17"></path><path d="M 0 1577 Q 355.5 -45 711 400 Q 1066.5 845 1422 1577" stroke-dasharray="84 55" opacity="0.67"></path><path d="M 0 1494 Q 355.5 -45 711 400 Q 1066.5 845 1422 1494" stroke-dasharray="17 71" opacity="0.62"></path><path d="M 0 1411 Q 355.5 -45 711 400 Q 1066.5 845 1422 1411" stroke-dasharray="75 70" opacity="0.67"></path><path d="M 0 1328 Q 355.5 -45 711 400 Q 1066.5 845 1422 1328" stroke-dasharray="36 69" opacity="0.16"></path><path d="M 0 1245 Q 355.5 -45 711 400 Q 1066.5 845 1422 1245" stroke-dasharray="29 53" opacity="0.53"></path><path d="M 0 1162 Q 355.5 -45 711 400 Q 1066.5 845 1422 1162" stroke-dasharray="87 32" opacity="0.15"></path><path d="M 0 1079 Q 355.5 -45 711 400 Q 1066.5 845 1422 1079" stroke-dasharray="71 86" opacity="0.60"></path><path d="M 0 996 Q 355.5 -45 711 400 Q 1066.5 845 1422 996" stroke-dasharray="17 64" opacity="0.73"></path><path d="M 0 913 Q 355.5 -45 711 400 Q 1066.5 845 1422 913" stroke-dasharray="72 6" opacity="0.80"></path><path d="M 0 830 Q 355.5 -45 711 400 Q 1066.5 845 1422 830" stroke-dasharray="33 26" opacity="0.44"></path><path d="M 0 747 Q 355.5 -45 711 400 Q 1066.5 845 1422 747" stroke-dasharray="19 39" opacity="0.14"></path><path d="M 0 664 Q 355.5 -45 711 400 Q 1066.5 845 1422 664" stroke-dasharray="62 18" opacity="0.23"></path><path d="M 0 581 Q 355.5 -45 711 400 Q 1066.5 845 1422 581" stroke-dasharray="56 54" opacity="0.59"></path><path d="M 0 498 Q 355.5 -45 711 400 Q 1066.5 845 1422 498" stroke-dasharray="79 14" opacity="0.63"></path><path d="M 0 415 Q 355.5 -45 711 400 Q 1066.5 845 1422 415" stroke-dasharray="74 37" opacity="0.48"></path><path d="M 0 332 Q 355.5 -45 711 400 Q 1066.5 845 1422 332" stroke-dasharray="38 28" opacity="0.16"></path><path d="M 0 249 Q 355.5 -45 711 400 Q 1066.5 845 1422 249" stroke-dasharray="59 87" opacity="0.40"></path><path d="M 0 166 Q 355.5 -45 711 400 Q 1066.5 845 1422 166" stroke-dasharray="41 9" opacity="0.57"></path></g></svg>