<svg xmlns="http://www.w3.org/2000/svg" version="1.1" xmlns:xlink="http://www.w3.org/1999/xlink" xmlns:svgjs="http://svgjs.dev/svgjs" viewBox="0 0 1422 800"><defs><linearGradient x1="50%" y1="0%" x2="50%" y2="100%" id="oooscillate-grad"><stop stop-color="hsl(206, 75%, 49%)" stop-opacity="1" offset="0%"></stop><stop stop-color="hsl(331, 90%, 56%)" stop-opacity="1" offset="100%"></stop></linearGradient></defs><g stroke-width="3.5" stroke="url(#oooscillate-grad)" fill="none" stroke-linecap="round"><path d="M 0 1872 Q 355.5 325 711 400 Q 1066.5 475 1422 1872" stroke-dasharray="65 72" opacity="0.71"></path><path d="M 0 1854 Q 355.5 325 711 400 Q 1066.5 475 1422 1854" stroke-dasharray="49 24" opacity="0.60"></path><path d="M 0 1836 Q 355.5 325 711 400 Q 1066.5 475 1422 1836" stroke-dasharray="64 49" opacity="0.20"></path><path d="M 0 1818 Q 355.5 325 711 400 Q 1066.5 475 1422 1818" stroke-dasharray="1 16" opacity="0.53"></path><path d="M 0 1800 Q 355.5 325 711 400 Q 1066.5 475 1422 1800" stroke-dasharray="69 63" opacity="0.51"></path><path d="M 0 1782 Q 355.5 325 711 400 Q 1066.5 475 1422 1782" stroke-dasharray="60 36" opacity="0.34"></path><path d="M 0 1764 Q 355.5 325 711 400 Q 1066.5 475 1422 1764" stroke-dasharray="19 12" opacity="0.09"></path><path d="M 0 1746 Q 355.5 325 711 400 Q 1066.5 475 1422 1746" stroke-dasharray="47 5" opacity="0.44"></path><path d="M 0 1728 Q 355.5 325 711 400 Q 1066.5 475 1422 1728" stroke-dasharray="24 53" opacity="0.79"></path><path d="M 0 1710 Q 355.5 325 711 400 Q 1066.5 475 1422 1710" stroke-dasharray="57 47" opacity="0.56"></path><path d="M 0 1692 Q 355.5 325 711 400 Q 1066.5 475 1422 1692" stroke-dasharray="26 72" opacity="0.82"></path><path d="M 0 1674 Q 355.5 325 711 400 Q 1066.5 475 1422 1674" stroke-dasharray="44 5" opacity="0.66"></path><path d="M 0 1656 Q 355.5 325 711 400 Q 1066.5 475 1422 1656" stroke-dasharray="71 33" opacity="0.98"></path><path d="M 0 1638 Q 355.5 325 711 400 Q 1066.5 475 1422 1638" stroke-dasharray="72 8" opacity="0.30"></path><path d="M 0 1620 Q 355.5 325 711 400 Q 1066.5 475 1422 1620" stroke-dasharray="18 61" opacity="0.28"></path><path d="M 0 1602 Q 355.5 325 711 400 Q 1066.5 475 1422 1602" stroke-dasharray="76 33" opacity="0.26"></path><path d="M 0 1584 Q 355.5 325 711 400 Q 1066.5 475 1422 1584" stroke-dasharray="29 20" opacity="0.20"></path><path d="M 0 1566 Q 355.5 325 711 400 Q 1066.5 475 1422 1566" stroke-dasharray="50 4" opacity="0.21"></path><path d="M 0 1548 Q 355.5 325 711 400 Q 1066.5 475 1422 1548" stroke-dasharray="12 62" opacity="0.63"></path><path d="M 0 1530 Q 355.5 325 711 400 Q 1066.5 475 1422 1530" stroke-dasharray="73 28" opacity="0.76"></path><path d="M 0 1512 Q 355.5 325 711 400 Q 1066.5 475 1422 1512" stroke-dasharray="57 78" opacity="0.88"></path><path d="M 0 1494 Q 355.5 325 711 400 Q 1066.5 475 1422 1494" stroke-dasharray="80 54" opacity="0.59"></path><path d="M 0 1476 Q 355.5 325 711 400 Q 1066.5 475 1422 1476" stroke-dasharray="58 60" opacity="0.43"></path><path d="M 0 1458 Q 355.5 325 711 400 Q 1066.5 475 1422 1458" stroke-dasharray="23 43" opacity="0.25"></path><path d="M 0 1440 Q 355.5 325 711 400 Q 1066.5 475 1422 1440" stroke-dasharray="12 41" opacity="0.71"></path><path d="M 0 1422 Q 355.5 325 711 400 Q 1066.5 475 1422 1422" stroke-dasharray="3 71" opacity="0.82"></path><path d="M 0 1404 Q 355.5 325 711 400 Q 1066.5 475 1422 1404" stroke-dasharray="40 21" opacity="0.96"></path><path d="M 0 1386 Q 355.5 325 711 400 Q 1066.5 475 1422 1386" stroke-dasharray="34 7" opacity="0.63"></path><path d="M 0 1368 Q 355.5 325 711 400 Q 1066.5 475 1422 1368" stroke-dasharray="40 75" opacity="0.60"></path><path d="M 0 1350 Q 355.5 325 711 400 Q 1066.5 475 1422 1350" stroke-dasharray="28 83" opacity="0.78"></path><path d="M 0 1332 Q 355.5 325 711 400 Q 1066.5 475 1422 1332" stroke-dasharray="56 13" opacity="0.14"></path><path d="M 0 1314 Q 355.5 325 711 400 Q 1066.5 475 1422 1314" stroke-dasharray="12 57" opacity="0.76"></path><path d="M 0 1296 Q 355.5 325 711 400 Q 1066.5 475 1422 1296" stroke-dasharray="62 38" opacity="0.43"></path><path d="M 0 1278 Q 355.5 325 711 400 Q 1066.5 475 1422 1278" stroke-dasharray="30 4" opacity="0.30"></path><path d="M 0 1260 Q 355.5 325 711 400 Q 1066.5 475 1422 1260" stroke-dasharray="74 26" opacity="0.88"></path><path d="M 0 1242 Q 355.5 325 711 400 Q 1066.5 475 1422 1242" stroke-dasharray="36 77" opacity="0.85"></path><path d="M 0 1224 Q 355.5 325 711 400 Q 1066.5 475 1422 1224" stroke-dasharray="18 41" opacity="0.68"></path><path d="M 0 1206 Q 355.5 325 711 400 Q 1066.5 475 1422 1206" stroke-dasharray="66 32" opacity="0.57"></path><path d="M 0 1188 Q 355.5 325 711 400 Q 1066.5 475 1422 1188" stroke-dasharray="10 80" opacity="0.88"></path><path d="M 0 1170 Q 355.5 325 711 400 Q 1066.5 475 1422 1170" stroke-dasharray="40 61" opacity="0.21"></path><path d="M 0 1152 Q 355.5 325 711 400 Q 1066.5 475 1422 1152" stroke-dasharray="72 50" opacity="0.59"></path><path d="M 0 1134 Q 355.5 325 711 400 Q 1066.5 475 1422 1134" stroke-dasharray="1 73" opacity="0.39"></path><path d="M 0 1116 Q 355.5 325 711 400 Q 1066.5 475 1422 1116" stroke-dasharray="80 60" opacity="0.56"></path><path d="M 0 1098 Q 355.5 325 711 400 Q 1066.5 475 1422 1098" stroke-dasharray="11 72" opacity="0.93"></path><path d="M 0 1080 Q 355.5 325 711 400 Q 1066.5 475 1422 1080" stroke-dasharray="45 72" opacity="0.65"></path><path d="M 0 1062 Q 355.5 325 711 400 Q 1066.5 475 1422 1062" stroke-dasharray="64 68" opacity="0.98"></path><path d="M 0 1044 Q 355.5 325 711 400 Q 1066.5 475 1422 1044" stroke-dasharray="23 42" opacity="0.40"></path><path d="M 0 1026 Q 355.5 325 711 400 Q 1066.5 475 1422 1026" stroke-dasharray="17 9" opacity="1.00"></path><path d="M 0 1008 Q 355.5 325 711 400 Q 1066.5 475 1422 1008" stroke-dasharray="79 80" opacity="0.92"></path><path d="M 0 990 Q 355.5 325 711 400 Q 1066.5 475 1422 990" stroke-dasharray="0 69" opacity="0.98"></path><path d="M 0 972 Q 355.5 325 711 400 Q 1066.5 475 1422 972" stroke-dasharray="61 36" opacity="0.26"></path><path d="M 0 954 Q 355.5 325 711 400 Q 1066.5 475 1422 954" stroke-dasharray="69 59" opacity="0.12"></path><path d="M 0 936 Q 355.5 325 711 400 Q 1066.5 475 1422 936" stroke-dasharray="76 57" opacity="0.67"></path><path d="M 0 918 Q 355.5 325 711 400 Q 1066.5 475 1422 918" stroke-dasharray="6 30" opacity="0.17"></path><path d="M 0 900 Q 355.5 325 711 400 Q 1066.5 475 1422 900" stroke-dasharray="37 23" opacity="0.15"></path><path d="M 0 882 Q 355.5 325 711 400 Q 1066.5 475 1422 882" stroke-dasharray="18 20" opacity="0.62"></path><path d="M 0 864 Q 355.5 325 711 400 Q 1066.5 475 1422 864" stroke-dasharray="53 64" opacity="0.17"></path><path d="M 0 846 Q 355.5 325 711 400 Q 1066.5 475 1422 846" stroke-dasharray="19 62" opacity="0.96"></path><path d="M 0 828 Q 355.5 325 711 400 Q 1066.5 475 1422 828" stroke-dasharray="62 28" opacity="0.57"></path><path d="M 0 810 Q 355.5 325 711 400 Q 1066.5 475 1422 810" stroke-dasharray="84 0" opacity="0.52"></path><path d="M 0 792 Q 355.5 325 711 400 Q 1066.5 475 1422 792" stroke-dasharray="56 27" opacity="0.74"></path><path d="M 0 774 Q 355.5 325 711 400 Q 1066.5 475 1422 774" stroke-dasharray="78 24" opacity="0.09"></path><path d="M 0 756 Q 355.5 325 711 400 Q 1066.5 475 1422 756" stroke-dasharray="28 69" opacity="0.85"></path><path d="M 0 738 Q 355.5 325 711 400 Q 1066.5 475 1422 738" stroke-dasharray="39 62" opacity="0.17"></path><path d="M 0 720 Q 355.5 325 711 400 Q 1066.5 475 1422 720" stroke-dasharray="65 32" opacity="0.26"></path><path d="M 0 702 Q 355.5 325 711 400 Q 1066.5 475 1422 702" stroke-dasharray="90 11" opacity="0.98"></path><path d="M 0 684 Q 355.5 325 711 400 Q 1066.5 475 1422 684" stroke-dasharray="2 63" opacity="0.53"></path><path d="M 0 666 Q 355.5 325 711 400 Q 1066.5 475 1422 666" stroke-dasharray="2 76" opacity="0.73"></path><path d="M 0 648 Q 355.5 325 711 400 Q 1066.5 475 1422 648" stroke-dasharray="21 60" opacity="0.80"></path><path d="M 0 630 Q 355.5 325 711 400 Q 1066.5 475 1422 630" stroke-dasharray="33 33" opacity="0.18"></path><path d="M 0 612 Q 355.5 325 711 400 Q 1066.5 475 1422 612" stroke-dasharray="46 35" opacity="0.76"></path><path d="M 0 594 Q 355.5 325 711 400 Q 1066.5 475 1422 594" stroke-dasharray="71 74" opacity="0.90"></path><path d="M 0 576 Q 355.5 325 711 400 Q 1066.5 475 1422 576" stroke-dasharray="80 77" opacity="0.85"></path><path d="M 0 558 Q 355.5 325 711 400 Q 1066.5 475 1422 558" stroke-dasharray="90 31" opacity="0.30"></path><path d="M 0 540 Q 355.5 325 711 400 Q 1066.5 475 1422 540" stroke-dasharray="13 62" opacity="0.83"></path><path d="M 0 522 Q 355.5 325 711 400 Q 1066.5 475 1422 522" stroke-dasharray="48 42" opacity="0.61"></path><path d="M 0 504 Q 355.5 325 711 400 Q 1066.5 475 1422 504" stroke-dasharray="13 59" opacity="0.48"></path><path d="M 0 486 Q 355.5 325 711 400 Q 1066.5 475 1422 486" stroke-dasharray="6 34" opacity="0.60"></path><path d="M 0 468 Q 355.5 325 711 400 Q 1066.5 475 1422 468" stroke-dasharray="74 48" opacity="0.80"></path><path d="M 0 450 Q 355.5 325 711 400 Q 1066.5 475 1422 450" stroke-dasharray="76 9" opacity="0.41"></path><path d="M 0 432 Q 355.5 325 711 400 Q 1066.5 475 1422 432" stroke-dasharray="10 70" opacity="0.34"></path><path d="M 0 414 Q 355.5 325 711 400 Q 1066.5 475 1422 414" stroke-dasharray="82 57" opacity="0.43"></path><path d="M 0 396 Q 355.5 325 711 400 Q 1066.5 475 1422 396" stroke-dasharray="87 39" opacity="0.69"></path><path d="M 0 378 Q 355.5 325 711 400 Q 1066.5 475 1422 378" stroke-dasharray="81 2" opacity="0.86"></path><path d="M 0 360 Q 355.5 325 711 400 Q 1066.5 475 1422 360" stroke-dasharray="44 48" opacity="0.98"></path><path d="M 0 342 Q 355.5 325 711 400 Q 1066.5 475 1422 342" stroke-dasharray="35 14" opacity="0.65"></path><path d="M 0 324 Q 355.5 325 711 400 Q 1066.5 475 1422 324" stroke-dasharray="77 69" opacity="0.55"></path><path d="M 0 306 Q 355.5 325 711 400 Q 1066.5 475 1422 306" stroke-dasharray="30 2" opacity="0.27"></path><path d="M 0 288 Q 355.5 325 711 400 Q 1066.5 475 1422 288" stroke-dasharray="29 35" opacity="0.32"></path><path d="M 0 270 Q 355.5 325 711 400 Q 1066.5 475 1422 270" stroke-dasharray="87 0" opacity="0.64"></path><path d="M 0 252 Q 355.5 325 711 400 Q 1066.5 475 1422 252" stroke-dasharray="12 42" opacity="0.58"></path><path d="M 0 234 Q 355.5 325 711 400 Q 1066.5 475 1422 234" stroke-dasharray="83 2" opacity="0.98"></path><path d="M 0 216 Q 355.5 325 711 400 Q 1066.5 475 1422 216" stroke-dasharray="55 45" opacity="0.69"></path><path d="M 0 198 Q 355.5 325 711 400 Q 1066.5 475 1422 198" stroke-dasharray="12 85" opacity="0.16"></path><path d="M 0 180 Q 355.5 325 711 400 Q 1066.5 475 1422 180" stroke-dasharray="30 4" opacity="0.89"></path><path d="M 0 162 Q 355.5 325 711 400 Q 1066.5 475 1422 162" stroke-dasharray="40 53" opacity="0.80"></path><path d="M 0 144 Q 355.5 325 711 400 Q 1066.5 475 1422 144" stroke-dasharray="13 22" opacity="0.14"></path><path d="M 0 126 Q 355.5 325 711 400 Q 1066.5 475 1422 126" stroke-dasharray="3 65" opacity="0.68"></path><path d="M 0 108 Q 355.5 325 711 400 Q 1066.5 475 1422 108" stroke-dasharray="14 5" opacity="0.66"></path><path d="M 0 90 Q 355.5 325 711 400 Q 1066.5 475 1422 90" stroke-dasharray="8 13" opacity="0.27"></path><path d="M 0 72 Q 355.5 325 711 400 Q 1066.5 475 1422 72" stroke-dasharray="39 60" opacity="0.91"></path><path d="M 0 54 Q 355.5 325 711 400 Q 1066.5 475 1422 54" stroke-dasharray="90 8" opacity="0.70"></path><path d="M 0 36 Q 355.5 325 711 400 Q 1066.5 475 1422 36" stroke-dasharray="25 84" opacity="0.44"></path></g></svg>